<mxfile host="app.diagrams.net" modified="2023-04-18T00:42:52.661Z" agent="Mozilla/5.0 (Windows NT 10.0; Win64; x64) AppleWebKit/537.36 (KHTML, like Gecko) Chrome/112.0.0.0 Safari/537.36" etag="mTitkNe1he7uCA6Z59Vy" version="21.1.8" type="device">
  <diagram name="Page-1" id="dIVlRM0FUi2KP0AZjJBj">
    <mxGraphModel dx="1588" dy="904" grid="1" gridSize="10" guides="1" tooltips="1" connect="1" arrows="1" fold="1" page="1" pageScale="1" pageWidth="850" pageHeight="1100" math="0" shadow="0">
      <root>
        <mxCell id="0" />
        <mxCell id="1" parent="0" />
        <mxCell id="cv3CHYFe_m0vqPARhQnP-1" value="&lt;b&gt;&lt;font style=&quot;font-size: 28px;&quot;&gt;Domain Model&lt;/font&gt;&lt;/b&gt;" style="text;html=1;align=center;verticalAlign=middle;resizable=0;points=[];autosize=1;strokeColor=none;fillColor=none;fontSize=25;" parent="1" vertex="1">
          <mxGeometry x="405" y="15" width="210" height="50" as="geometry" />
        </mxCell>
        <mxCell id="cv3CHYFe_m0vqPARhQnP-2" value="Democracia2.0" style="rounded=0;whiteSpace=wrap;html=1;" parent="1" vertex="1">
          <mxGeometry x="450" y="90" width="120" height="60" as="geometry" />
        </mxCell>
        <mxCell id="cv3CHYFe_m0vqPARhQnP-3" value="PollCatalog" style="rounded=0;whiteSpace=wrap;html=1;" parent="1" vertex="1">
          <mxGeometry x="40" y="210" width="120" height="60" as="geometry" />
        </mxCell>
        <mxCell id="cv3CHYFe_m0vqPARhQnP-4" value="" style="endArrow=none;html=1;rounded=0;exitX=0;exitY=0.5;exitDx=0;exitDy=0;endFill=0;" parent="1" source="cv3CHYFe_m0vqPARhQnP-2" target="cv3CHYFe_m0vqPARhQnP-3" edge="1">
          <mxGeometry width="50" height="50" relative="1" as="geometry">
            <mxPoint x="300" y="310" as="sourcePoint" />
            <mxPoint x="350" y="260" as="targetPoint" />
            <Array as="points">
              <mxPoint x="100" y="120" />
            </Array>
          </mxGeometry>
        </mxCell>
        <mxCell id="cv3CHYFe_m0vqPARhQnP-5" value="1" style="text;html=1;align=center;verticalAlign=middle;resizable=0;points=[];autosize=1;strokeColor=none;fillColor=none;" parent="1" vertex="1">
          <mxGeometry x="100" y="180" width="30" height="30" as="geometry" />
        </mxCell>
        <mxCell id="cv3CHYFe_m0vqPARhQnP-6" value="1" style="text;html=1;align=center;verticalAlign=middle;resizable=0;points=[];autosize=1;strokeColor=none;fillColor=none;" parent="1" vertex="1">
          <mxGeometry x="420" y="90" width="30" height="30" as="geometry" />
        </mxCell>
        <mxCell id="cv3CHYFe_m0vqPARhQnP-7" value="BillCatalog" style="rounded=0;whiteSpace=wrap;html=1;" parent="1" vertex="1">
          <mxGeometry x="280" y="210" width="120" height="60" as="geometry" />
        </mxCell>
        <mxCell id="cv3CHYFe_m0vqPARhQnP-8" value="" style="endArrow=none;html=1;rounded=0;exitX=0.25;exitY=1;exitDx=0;exitDy=0;entryX=0.5;entryY=0;entryDx=0;entryDy=0;endFill=0;" parent="1" source="cv3CHYFe_m0vqPARhQnP-2" target="cv3CHYFe_m0vqPARhQnP-7" edge="1">
          <mxGeometry width="50" height="50" relative="1" as="geometry">
            <mxPoint x="510" y="280" as="sourcePoint" />
            <mxPoint x="560" y="230" as="targetPoint" />
            <Array as="points">
              <mxPoint x="480" y="180" />
              <mxPoint x="440" y="180" />
              <mxPoint x="380" y="180" />
              <mxPoint x="340" y="180" />
            </Array>
          </mxGeometry>
        </mxCell>
        <mxCell id="cv3CHYFe_m0vqPARhQnP-9" value="1" style="text;html=1;align=center;verticalAlign=middle;resizable=0;points=[];autosize=1;strokeColor=none;fillColor=none;" parent="1" vertex="1">
          <mxGeometry x="450" y="150" width="30" height="30" as="geometry" />
        </mxCell>
        <mxCell id="cv3CHYFe_m0vqPARhQnP-10" value="1" style="text;html=1;align=center;verticalAlign=middle;resizable=0;points=[];autosize=1;strokeColor=none;fillColor=none;" parent="1" vertex="1">
          <mxGeometry x="310" y="180" width="30" height="30" as="geometry" />
        </mxCell>
        <mxCell id="cv3CHYFe_m0vqPARhQnP-11" value="CitizenCatalog" style="rounded=0;whiteSpace=wrap;html=1;" parent="1" vertex="1">
          <mxGeometry x="880" y="210" width="120" height="60" as="geometry" />
        </mxCell>
        <mxCell id="cv3CHYFe_m0vqPARhQnP-12" value="" style="endArrow=none;html=1;rounded=0;exitX=0.75;exitY=1;exitDx=0;exitDy=0;endFill=0;entryX=0.5;entryY=0;entryDx=0;entryDy=0;" parent="1" source="cv3CHYFe_m0vqPARhQnP-2" target="cv3CHYFe_m0vqPARhQnP-15" edge="1">
          <mxGeometry width="50" height="50" relative="1" as="geometry">
            <mxPoint x="570" y="120" as="sourcePoint" />
            <mxPoint x="580" y="240" as="targetPoint" />
            <Array as="points">
              <mxPoint x="540" y="180" />
              <mxPoint x="630" y="180" />
              <mxPoint x="680" y="180" />
              <mxPoint x="700" y="180" />
            </Array>
          </mxGeometry>
        </mxCell>
        <mxCell id="cv3CHYFe_m0vqPARhQnP-13" value="1" style="text;html=1;align=center;verticalAlign=middle;resizable=0;points=[];autosize=1;strokeColor=none;fillColor=none;" parent="1" vertex="1">
          <mxGeometry x="540" y="150" width="30" height="30" as="geometry" />
        </mxCell>
        <mxCell id="cv3CHYFe_m0vqPARhQnP-14" value="1" style="text;html=1;align=center;verticalAlign=middle;resizable=0;points=[];autosize=1;strokeColor=none;fillColor=none;" parent="1" vertex="1">
          <mxGeometry x="700" y="180" width="30" height="30" as="geometry" />
        </mxCell>
        <mxCell id="cv3CHYFe_m0vqPARhQnP-15" value="ThemeCatalog" style="rounded=0;whiteSpace=wrap;html=1;" parent="1" vertex="1">
          <mxGeometry x="640" y="210" width="120" height="60" as="geometry" />
        </mxCell>
        <mxCell id="cv3CHYFe_m0vqPARhQnP-16" value="" style="endArrow=none;html=1;rounded=0;exitX=1;exitY=0.5;exitDx=0;exitDy=0;endFill=0;entryX=0.5;entryY=0;entryDx=0;entryDy=0;" parent="1" source="cv3CHYFe_m0vqPARhQnP-2" target="cv3CHYFe_m0vqPARhQnP-11" edge="1">
          <mxGeometry width="50" height="50" relative="1" as="geometry">
            <mxPoint x="460" y="130" as="sourcePoint" />
            <mxPoint x="1000" y="150" as="targetPoint" />
            <Array as="points">
              <mxPoint x="940" y="120" />
            </Array>
          </mxGeometry>
        </mxCell>
        <mxCell id="cv3CHYFe_m0vqPARhQnP-17" value="1" style="text;html=1;align=center;verticalAlign=middle;resizable=0;points=[];autosize=1;strokeColor=none;fillColor=none;" parent="1" vertex="1">
          <mxGeometry x="940" y="180" width="30" height="30" as="geometry" />
        </mxCell>
        <mxCell id="cv3CHYFe_m0vqPARhQnP-18" value="1" style="text;html=1;align=center;verticalAlign=middle;resizable=0;points=[];autosize=1;strokeColor=none;fillColor=none;" parent="1" vertex="1">
          <mxGeometry x="570" y="90" width="30" height="30" as="geometry" />
        </mxCell>
        <mxCell id="cv3CHYFe_m0vqPARhQnP-19" value="" style="endArrow=none;html=1;rounded=0;exitX=0.5;exitY=0;exitDx=0;exitDy=0;entryX=0.5;entryY=1;entryDx=0;entryDy=0;" parent="1" target="cv3CHYFe_m0vqPARhQnP-3" edge="1">
          <mxGeometry width="50" height="50" relative="1" as="geometry">
            <mxPoint x="100" y="370" as="sourcePoint" />
            <mxPoint x="530" y="360" as="targetPoint" />
          </mxGeometry>
        </mxCell>
        <mxCell id="cv3CHYFe_m0vqPARhQnP-20" value="" style="endArrow=none;html=1;rounded=0;entryX=0.5;entryY=1;entryDx=0;entryDy=0;" parent="1" target="cv3CHYFe_m0vqPARhQnP-7" edge="1">
          <mxGeometry width="50" height="50" relative="1" as="geometry">
            <mxPoint x="340" y="370" as="sourcePoint" />
            <mxPoint x="350" y="280" as="targetPoint" />
          </mxGeometry>
        </mxCell>
        <mxCell id="cv3CHYFe_m0vqPARhQnP-21" value="" style="endArrow=none;html=1;rounded=0;exitX=0.5;exitY=0;exitDx=0;exitDy=0;entryX=0.5;entryY=1;entryDx=0;entryDy=0;" parent="1" target="cv3CHYFe_m0vqPARhQnP-15" edge="1">
          <mxGeometry width="50" height="50" relative="1" as="geometry">
            <mxPoint x="700" y="370" as="sourcePoint" />
            <mxPoint x="650" y="320" as="targetPoint" />
            <Array as="points">
              <mxPoint x="700" y="330" />
            </Array>
          </mxGeometry>
        </mxCell>
        <mxCell id="cv3CHYFe_m0vqPARhQnP-22" value="" style="endArrow=none;html=1;rounded=0;entryX=0.5;entryY=1;entryDx=0;entryDy=0;exitX=0.5;exitY=0;exitDx=0;exitDy=0;" parent="1" source="cv3CHYFe_m0vqPARhQnP-40" target="cv3CHYFe_m0vqPARhQnP-11" edge="1">
          <mxGeometry width="50" height="50" relative="1" as="geometry">
            <mxPoint x="880" y="330" as="sourcePoint" />
            <mxPoint x="1010" y="210" as="targetPoint" />
          </mxGeometry>
        </mxCell>
        <mxCell id="cv3CHYFe_m0vqPARhQnP-23" value="1" style="text;html=1;align=center;verticalAlign=middle;resizable=0;points=[];autosize=1;strokeColor=none;fillColor=none;" parent="1" vertex="1">
          <mxGeometry x="100" y="270" width="30" height="30" as="geometry" />
        </mxCell>
        <mxCell id="cv3CHYFe_m0vqPARhQnP-24" value="*" style="text;html=1;align=center;verticalAlign=middle;resizable=0;points=[];autosize=1;strokeColor=none;fillColor=none;" parent="1" vertex="1">
          <mxGeometry x="100" y="340" width="30" height="30" as="geometry" />
        </mxCell>
        <mxCell id="cv3CHYFe_m0vqPARhQnP-25" value="1" style="text;html=1;align=center;verticalAlign=middle;resizable=0;points=[];autosize=1;strokeColor=none;fillColor=none;" parent="1" vertex="1">
          <mxGeometry x="310" y="270" width="30" height="30" as="geometry" />
        </mxCell>
        <mxCell id="cv3CHYFe_m0vqPARhQnP-26" value="*" style="text;html=1;align=center;verticalAlign=middle;resizable=0;points=[];autosize=1;strokeColor=none;fillColor=none;" parent="1" vertex="1">
          <mxGeometry x="310" y="340" width="30" height="30" as="geometry" />
        </mxCell>
        <mxCell id="cv3CHYFe_m0vqPARhQnP-27" value="1" style="text;html=1;align=center;verticalAlign=middle;resizable=0;points=[];autosize=1;strokeColor=none;fillColor=none;" parent="1" vertex="1">
          <mxGeometry x="940" y="270" width="30" height="30" as="geometry" />
        </mxCell>
        <mxCell id="cv3CHYFe_m0vqPARhQnP-28" value="*" style="text;html=1;align=center;verticalAlign=middle;resizable=0;points=[];autosize=1;strokeColor=none;fillColor=none;" parent="1" vertex="1">
          <mxGeometry x="940" y="340" width="30" height="30" as="geometry" />
        </mxCell>
        <mxCell id="cv3CHYFe_m0vqPARhQnP-29" value="1" style="text;html=1;align=center;verticalAlign=middle;resizable=0;points=[];autosize=1;strokeColor=none;fillColor=none;" parent="1" vertex="1">
          <mxGeometry x="700" y="270" width="30" height="30" as="geometry" />
        </mxCell>
        <mxCell id="cv3CHYFe_m0vqPARhQnP-30" value="*" style="text;html=1;align=center;verticalAlign=middle;resizable=0;points=[];autosize=1;strokeColor=none;fillColor=none;" parent="1" vertex="1">
          <mxGeometry x="700" y="340" width="30" height="30" as="geometry" />
        </mxCell>
        <mxCell id="cv3CHYFe_m0vqPARhQnP-31" value="" style="triangle;whiteSpace=wrap;html=1;direction=north;" parent="1" vertex="1">
          <mxGeometry x="920" y="490" width="40" height="30" as="geometry" />
        </mxCell>
        <mxCell id="cv3CHYFe_m0vqPARhQnP-32" value="" style="endArrow=none;html=1;rounded=0;exitX=0.5;exitY=0;exitDx=0;exitDy=0;entryX=0;entryY=0.5;entryDx=0;entryDy=0;" parent="1" source="cv3CHYFe_m0vqPARhQnP-50" target="cv3CHYFe_m0vqPARhQnP-31" edge="1">
          <mxGeometry width="50" height="50" relative="1" as="geometry">
            <mxPoint x="700" y="660" as="sourcePoint" />
            <mxPoint x="700" y="550" as="targetPoint" />
          </mxGeometry>
        </mxCell>
        <mxCell id="cv3CHYFe_m0vqPARhQnP-33" value="" style="endArrow=none;html=1;rounded=0;exitX=1;exitY=0;exitDx=0;exitDy=0;exitPerimeter=0;" parent="1" source="cv3CHYFe_m0vqPARhQnP-52" edge="1">
          <mxGeometry width="50" height="50" relative="1" as="geometry">
            <mxPoint x="910" y="780" as="sourcePoint" />
            <mxPoint x="380" y="580" as="targetPoint" />
            <Array as="points">
              <mxPoint x="900" y="780" />
              <mxPoint x="380" y="780" />
            </Array>
          </mxGeometry>
        </mxCell>
        <mxCell id="cv3CHYFe_m0vqPARhQnP-34" value="Poll" style="swimlane;fontStyle=0;childLayout=stackLayout;horizontal=1;startSize=30;horizontalStack=0;resizeParent=1;resizeParentMax=0;resizeLast=0;collapsible=1;marginBottom=0;whiteSpace=wrap;html=1;" parent="1" vertex="1">
          <mxGeometry x="30" y="370" width="140" height="180" as="geometry" />
        </mxCell>
        <mxCell id="cv3CHYFe_m0vqPARhQnP-35" value="numPositiveVotes" style="text;strokeColor=none;fillColor=none;align=left;verticalAlign=middle;spacingLeft=4;spacingRight=4;overflow=hidden;points=[[0,0.5],[1,0.5]];portConstraint=eastwest;rotatable=0;whiteSpace=wrap;html=1;" parent="cv3CHYFe_m0vqPARhQnP-34" vertex="1">
          <mxGeometry y="30" width="140" height="30" as="geometry" />
        </mxCell>
        <mxCell id="cv3CHYFe_m0vqPARhQnP-36" value="numNegativeVotes" style="text;strokeColor=none;fillColor=none;align=left;verticalAlign=middle;spacingLeft=4;spacingRight=4;overflow=hidden;points=[[0,0.5],[1,0.5]];portConstraint=eastwest;rotatable=0;whiteSpace=wrap;html=1;" parent="cv3CHYFe_m0vqPARhQnP-34" vertex="1">
          <mxGeometry y="60" width="140" height="30" as="geometry" />
        </mxCell>
        <mxCell id="cv3CHYFe_m0vqPARhQnP-37" value="closingDate" style="text;strokeColor=none;fillColor=none;align=left;verticalAlign=middle;spacingLeft=4;spacingRight=4;overflow=hidden;points=[[0,0.5],[1,0.5]];portConstraint=eastwest;rotatable=0;whiteSpace=wrap;html=1;" parent="cv3CHYFe_m0vqPARhQnP-34" vertex="1">
          <mxGeometry y="90" width="140" height="30" as="geometry" />
        </mxCell>
        <mxCell id="cv3CHYFe_m0vqPARhQnP-38" value="status" style="text;strokeColor=none;fillColor=none;align=left;verticalAlign=middle;spacingLeft=4;spacingRight=4;overflow=hidden;points=[[0,0.5],[1,0.5]];portConstraint=eastwest;rotatable=0;whiteSpace=wrap;html=1;" parent="cv3CHYFe_m0vqPARhQnP-34" vertex="1">
          <mxGeometry y="120" width="140" height="30" as="geometry" />
        </mxCell>
        <mxCell id="cv3CHYFe_m0vqPARhQnP-39" value="voters" style="text;strokeColor=none;fillColor=none;align=left;verticalAlign=middle;spacingLeft=4;spacingRight=4;overflow=hidden;points=[[0,0.5],[1,0.5]];portConstraint=eastwest;rotatable=0;whiteSpace=wrap;html=1;" parent="cv3CHYFe_m0vqPARhQnP-34" vertex="1">
          <mxGeometry y="150" width="140" height="30" as="geometry" />
        </mxCell>
        <mxCell id="cv3CHYFe_m0vqPARhQnP-40" value="Voter" style="swimlane;fontStyle=0;childLayout=stackLayout;horizontal=1;startSize=30;horizontalStack=0;resizeParent=1;resizeParentMax=0;resizeLast=0;collapsible=1;marginBottom=0;whiteSpace=wrap;html=1;" parent="1" vertex="1">
          <mxGeometry x="870" y="400" width="140" height="90" as="geometry" />
        </mxCell>
        <mxCell id="cv3CHYFe_m0vqPARhQnP-41" value="nic" style="text;strokeColor=none;fillColor=none;align=left;verticalAlign=middle;spacingLeft=4;spacingRight=4;overflow=hidden;points=[[0,0.5],[1,0.5]];portConstraint=eastwest;rotatable=0;whiteSpace=wrap;html=1;" parent="cv3CHYFe_m0vqPARhQnP-40" vertex="1">
          <mxGeometry y="30" width="140" height="30" as="geometry" />
        </mxCell>
        <mxCell id="cv3CHYFe_m0vqPARhQnP-42" value="cc" style="text;strokeColor=none;fillColor=none;align=left;verticalAlign=middle;spacingLeft=4;spacingRight=4;overflow=hidden;points=[[0,0.5],[1,0.5]];portConstraint=eastwest;rotatable=0;whiteSpace=wrap;html=1;" parent="cv3CHYFe_m0vqPARhQnP-40" vertex="1">
          <mxGeometry y="60" width="140" height="30" as="geometry" />
        </mxCell>
        <mxCell id="cv3CHYFe_m0vqPARhQnP-47" value="Theme" style="swimlane;fontStyle=0;childLayout=stackLayout;horizontal=1;startSize=30;horizontalStack=0;resizeParent=1;resizeParentMax=0;resizeLast=0;collapsible=1;marginBottom=0;whiteSpace=wrap;html=1;" parent="1" vertex="1">
          <mxGeometry x="630" y="370" width="140" height="90" as="geometry" />
        </mxCell>
        <mxCell id="cv3CHYFe_m0vqPARhQnP-48" value="designation" style="text;strokeColor=none;fillColor=none;align=left;verticalAlign=middle;spacingLeft=4;spacingRight=4;overflow=hidden;points=[[0,0.5],[1,0.5]];portConstraint=eastwest;rotatable=0;whiteSpace=wrap;html=1;" parent="cv3CHYFe_m0vqPARhQnP-47" vertex="1">
          <mxGeometry y="30" width="140" height="30" as="geometry" />
        </mxCell>
        <mxCell id="cv3CHYFe_m0vqPARhQnP-49" value="subthemes" style="text;strokeColor=none;fillColor=none;align=left;verticalAlign=middle;spacingLeft=4;spacingRight=4;overflow=hidden;points=[[0,0.5],[1,0.5]];portConstraint=eastwest;rotatable=0;whiteSpace=wrap;html=1;" parent="cv3CHYFe_m0vqPARhQnP-47" vertex="1">
          <mxGeometry y="60" width="140" height="30" as="geometry" />
        </mxCell>
        <mxCell id="cv3CHYFe_m0vqPARhQnP-50" value="Delegate" style="swimlane;fontStyle=0;childLayout=stackLayout;horizontal=1;startSize=30;horizontalStack=0;resizeParent=1;resizeParentMax=0;resizeLast=0;collapsible=1;marginBottom=0;whiteSpace=wrap;html=1;" parent="1" vertex="1">
          <mxGeometry x="870" y="680" width="140" height="60" as="geometry" />
        </mxCell>
        <mxCell id="cv3CHYFe_m0vqPARhQnP-51" value="*" style="text;html=1;align=center;verticalAlign=middle;resizable=0;points=[];autosize=1;strokeColor=none;fillColor=none;" parent="1" vertex="1">
          <mxGeometry x="380" y="580" width="30" height="30" as="geometry" />
        </mxCell>
        <mxCell id="cv3CHYFe_m0vqPARhQnP-52" value="1" style="text;html=1;align=center;verticalAlign=middle;resizable=0;points=[];autosize=1;strokeColor=none;fillColor=none;" parent="1" vertex="1">
          <mxGeometry x="870" y="740" width="30" height="30" as="geometry" />
        </mxCell>
        <mxCell id="cv3CHYFe_m0vqPARhQnP-53" value="*" style="text;html=1;align=center;verticalAlign=middle;resizable=0;points=[];autosize=1;strokeColor=none;fillColor=none;" parent="1" vertex="1">
          <mxGeometry x="1010" y="460" width="30" height="30" as="geometry" />
        </mxCell>
        <mxCell id="cv3CHYFe_m0vqPARhQnP-54" value="*" style="text;html=1;align=center;verticalAlign=middle;resizable=0;points=[];autosize=1;strokeColor=none;fillColor=none;" parent="1" vertex="1">
          <mxGeometry x="300" y="580" width="30" height="30" as="geometry" />
        </mxCell>
        <mxCell id="cv3CHYFe_m0vqPARhQnP-55" value="" style="group" parent="1" vertex="1" connectable="0">
          <mxGeometry x="270" y="370" width="150" height="180" as="geometry" />
        </mxCell>
        <mxCell id="cv3CHYFe_m0vqPARhQnP-56" value="Bill" style="swimlane;fontStyle=0;childLayout=stackLayout;horizontal=1;startSize=30;horizontalStack=0;resizeParent=1;resizeParentMax=0;resizeLast=0;collapsible=1;marginBottom=0;whiteSpace=wrap;html=1;" parent="cv3CHYFe_m0vqPARhQnP-55" vertex="1">
          <mxGeometry width="140" height="210" as="geometry" />
        </mxCell>
        <mxCell id="cv3CHYFe_m0vqPARhQnP-57" value="title" style="text;strokeColor=none;fillColor=none;align=left;verticalAlign=middle;spacingLeft=4;spacingRight=4;overflow=hidden;points=[[0,0.5],[1,0.5]];portConstraint=eastwest;rotatable=0;whiteSpace=wrap;html=1;" parent="cv3CHYFe_m0vqPARhQnP-56" vertex="1">
          <mxGeometry y="30" width="140" height="30" as="geometry" />
        </mxCell>
        <mxCell id="cv3CHYFe_m0vqPARhQnP-58" value="description" style="text;strokeColor=none;fillColor=none;align=left;verticalAlign=middle;spacingLeft=4;spacingRight=4;overflow=hidden;points=[[0,0.5],[1,0.5]];portConstraint=eastwest;rotatable=0;whiteSpace=wrap;html=1;" parent="cv3CHYFe_m0vqPARhQnP-56" vertex="1">
          <mxGeometry y="60" width="140" height="30" as="geometry" />
        </mxCell>
        <mxCell id="cv3CHYFe_m0vqPARhQnP-59" value="billMainContentPdf" style="text;strokeColor=none;fillColor=none;align=left;verticalAlign=middle;spacingLeft=4;spacingRight=4;overflow=hidden;points=[[0,0.5],[1,0.5]];portConstraint=eastwest;rotatable=0;whiteSpace=wrap;html=1;" parent="cv3CHYFe_m0vqPARhQnP-56" vertex="1">
          <mxGeometry y="90" width="140" height="30" as="geometry" />
        </mxCell>
        <mxCell id="cv3CHYFe_m0vqPARhQnP-60" value="expirationDate" style="text;strokeColor=none;fillColor=none;align=left;verticalAlign=middle;spacingLeft=4;spacingRight=4;overflow=hidden;points=[[0,0.5],[1,0.5]];portConstraint=eastwest;rotatable=0;whiteSpace=wrap;html=1;" parent="cv3CHYFe_m0vqPARhQnP-56" vertex="1">
          <mxGeometry y="120" width="140" height="30" as="geometry" />
        </mxCell>
        <mxCell id="cv3CHYFe_m0vqPARhQnP-61" value="status" style="text;strokeColor=none;fillColor=none;align=left;verticalAlign=middle;spacingLeft=4;spacingRight=4;overflow=hidden;points=[[0,0.5],[1,0.5]];portConstraint=eastwest;rotatable=0;whiteSpace=wrap;html=1;" parent="cv3CHYFe_m0vqPARhQnP-56" vertex="1">
          <mxGeometry y="150" width="140" height="30" as="geometry" />
        </mxCell>
        <mxCell id="cv3CHYFe_m0vqPARhQnP-62" value="numSupporters" style="text;strokeColor=none;fillColor=none;align=left;verticalAlign=middle;spacingLeft=4;spacingRight=4;overflow=hidden;points=[[0,0.5],[1,0.5]];portConstraint=eastwest;rotatable=0;whiteSpace=wrap;html=1;" parent="cv3CHYFe_m0vqPARhQnP-56" vertex="1">
          <mxGeometry y="180" width="140" height="30" as="geometry" />
        </mxCell>
        <mxCell id="cv3CHYFe_m0vqPARhQnP-63" value="*" style="text;html=1;align=center;verticalAlign=middle;resizable=0;points=[];autosize=1;strokeColor=none;fillColor=none;" parent="1" vertex="1">
          <mxGeometry x="847" y="451" width="30" height="30" as="geometry" />
        </mxCell>
        <mxCell id="cv3CHYFe_m0vqPARhQnP-64" value="*" style="text;html=1;align=center;verticalAlign=middle;resizable=0;points=[];autosize=1;strokeColor=none;fillColor=none;" parent="1" vertex="1">
          <mxGeometry x="643" y="607" width="30" height="30" as="geometry" />
        </mxCell>
        <mxCell id="cv3CHYFe_m0vqPARhQnP-65" value="" style="endArrow=none;html=1;rounded=0;" parent="1" edge="1">
          <mxGeometry width="50" height="50" relative="1" as="geometry">
            <mxPoint x="170" y="420" as="sourcePoint" />
            <mxPoint x="270" y="420" as="targetPoint" />
          </mxGeometry>
        </mxCell>
        <mxCell id="cv3CHYFe_m0vqPARhQnP-66" value="1" style="text;html=1;align=center;verticalAlign=middle;resizable=0;points=[];autosize=1;strokeColor=none;fillColor=none;" parent="1" vertex="1">
          <mxGeometry x="240" y="420" width="30" height="30" as="geometry" />
        </mxCell>
        <mxCell id="cv3CHYFe_m0vqPARhQnP-67" value="1" style="text;html=1;align=center;verticalAlign=middle;resizable=0;points=[];autosize=1;strokeColor=none;fillColor=none;" parent="1" vertex="1">
          <mxGeometry x="170" y="420" width="30" height="30" as="geometry" />
        </mxCell>
        <mxCell id="cv3CHYFe_m0vqPARhQnP-68" value="1" style="text;html=1;align=center;verticalAlign=middle;resizable=0;points=[];autosize=1;strokeColor=none;fillColor=none;" parent="1" vertex="1">
          <mxGeometry x="600" y="385" width="30" height="30" as="geometry" />
        </mxCell>
        <mxCell id="cv3CHYFe_m0vqPARhQnP-69" value="*" style="text;html=1;align=center;verticalAlign=middle;resizable=0;points=[];autosize=1;strokeColor=none;fillColor=none;" parent="1" vertex="1">
          <mxGeometry x="410" y="385" width="30" height="30" as="geometry" />
        </mxCell>
        <mxCell id="cv3CHYFe_m0vqPARhQnP-70" value="" style="endArrow=none;html=1;rounded=0;exitX=-0.006;exitY=-0.019;exitDx=0;exitDy=0;exitPerimeter=0;" parent="1" source="cv3CHYFe_m0vqPARhQnP-53" edge="1">
          <mxGeometry width="50" height="50" relative="1" as="geometry">
            <mxPoint x="1040" y="470" as="sourcePoint" />
            <mxPoint x="300" y="580" as="targetPoint" />
            <Array as="points">
              <mxPoint x="1050" y="460" />
              <mxPoint x="1050" y="580" />
              <mxPoint x="1050" y="830" />
              <mxPoint x="300" y="830" />
            </Array>
          </mxGeometry>
        </mxCell>
        <mxCell id="cv3CHYFe_m0vqPARhQnP-71" value="" style="endArrow=none;html=1;rounded=0;exitX=0.027;exitY=0.981;exitDx=0;exitDy=0;exitPerimeter=0;" parent="1" source="cv3CHYFe_m0vqPARhQnP-73" edge="1">
          <mxGeometry width="50" height="50" relative="1" as="geometry">
            <mxPoint x="1080" y="380" as="sourcePoint" />
            <mxPoint x="100" y="550" as="targetPoint" />
            <Array as="points">
              <mxPoint x="1080" y="415" />
              <mxPoint x="1080" y="860" />
              <mxPoint x="100" y="860" />
            </Array>
          </mxGeometry>
        </mxCell>
        <mxCell id="cv3CHYFe_m0vqPARhQnP-72" value="*" style="text;html=1;align=center;verticalAlign=middle;resizable=0;points=[];autosize=1;strokeColor=none;fillColor=none;" parent="1" vertex="1">
          <mxGeometry x="100" y="550" width="30" height="30" as="geometry" />
        </mxCell>
        <mxCell id="cv3CHYFe_m0vqPARhQnP-73" value="*" style="text;html=1;align=center;verticalAlign=middle;resizable=0;points=[];autosize=1;strokeColor=none;fillColor=none;" parent="1" vertex="1">
          <mxGeometry x="1010" y="385" width="30" height="30" as="geometry" />
        </mxCell>
        <mxCell id="cv3CHYFe_m0vqPARhQnP-74" value="*" style="text;html=1;align=center;verticalAlign=middle;resizable=0;points=[];autosize=1;strokeColor=none;fillColor=none;" parent="1" vertex="1">
          <mxGeometry x="644" y="527" width="30" height="30" as="geometry" />
        </mxCell>
        <mxCell id="cv3CHYFe_m0vqPARhQnP-75" value="" style="endArrow=none;html=1;rounded=0;exitX=1;exitY=0.5;exitDx=0;exitDy=0;entryX=0;entryY=0.5;entryDx=0;entryDy=0;" parent="1" source="cv3CHYFe_m0vqPARhQnP-57" target="cv3CHYFe_m0vqPARhQnP-48" edge="1">
          <mxGeometry width="50" height="50" relative="1" as="geometry">
            <mxPoint x="410" y="420" as="sourcePoint" />
            <mxPoint x="630" y="420" as="targetPoint" />
          </mxGeometry>
        </mxCell>
        <mxCell id="cv3CHYFe_m0vqPARhQnP-76" value="Represented-by" style="text;html=1;align=center;verticalAlign=middle;resizable=0;points=[];autosize=1;strokeColor=none;fillColor=none;" parent="1" vertex="1">
          <mxGeometry x="763" y="584" width="110" height="30" as="geometry" />
        </mxCell>
        <mxCell id="cv3CHYFe_m0vqPARhQnP-77" value="Propose" style="text;html=1;align=center;verticalAlign=middle;resizable=0;points=[];autosize=1;strokeColor=none;fillColor=none;" parent="1" vertex="1">
          <mxGeometry x="610" y="750" width="70" height="30" as="geometry" />
        </mxCell>
        <mxCell id="cv3CHYFe_m0vqPARhQnP-78" value="Support" style="text;html=1;align=center;verticalAlign=middle;resizable=0;points=[];autosize=1;strokeColor=none;fillColor=none;" parent="1" vertex="1">
          <mxGeometry x="645" y="805" width="70" height="30" as="geometry" />
        </mxCell>
        <mxCell id="cv3CHYFe_m0vqPARhQnP-79" value="Associated-with" style="text;html=1;align=center;verticalAlign=middle;resizable=0;points=[];autosize=1;strokeColor=none;fillColor=none;" parent="1" vertex="1">
          <mxGeometry x="165" y="390" width="110" height="30" as="geometry" />
        </mxCell>
        <mxCell id="cv3CHYFe_m0vqPARhQnP-80" value="Contains" style="text;html=1;align=center;verticalAlign=middle;resizable=0;points=[];autosize=1;strokeColor=none;fillColor=none;" parent="1" vertex="1">
          <mxGeometry x="527.25" y="390" width="70" height="30" as="geometry" />
        </mxCell>
        <mxCell id="cv3CHYFe_m0vqPARhQnP-81" value="Vote-in" style="text;html=1;align=center;verticalAlign=middle;resizable=0;points=[];autosize=1;strokeColor=none;fillColor=none;" parent="1" vertex="1">
          <mxGeometry x="550" y="835" width="60" height="30" as="geometry" />
        </mxCell>
        <mxCell id="cv3CHYFe_m0vqPARhQnP-82" style="edgeStyle=orthogonalEdgeStyle;rounded=0;orthogonalLoop=1;jettySize=auto;html=1;entryX=0;entryY=0.5;entryDx=0;entryDy=0;endArrow=none;endFill=0;" parent="1" source="cv3CHYFe_m0vqPARhQnP-86" target="cv3CHYFe_m0vqPARhQnP-50" edge="1">
          <mxGeometry relative="1" as="geometry">
            <Array as="points">
              <mxPoint x="650" y="710" />
            </Array>
          </mxGeometry>
        </mxCell>
        <mxCell id="cv3CHYFe_m0vqPARhQnP-83" value="" style="edgeStyle=orthogonalEdgeStyle;rounded=0;orthogonalLoop=1;jettySize=auto;html=1;endArrow=none;endFill=0;" parent="1" source="cv3CHYFe_m0vqPARhQnP-86" target="cv3CHYFe_m0vqPARhQnP-49" edge="1">
          <mxGeometry relative="1" as="geometry">
            <Array as="points">
              <mxPoint x="650" y="500" />
              <mxPoint x="650" y="500" />
            </Array>
          </mxGeometry>
        </mxCell>
        <mxCell id="cv3CHYFe_m0vqPARhQnP-84" style="edgeStyle=orthogonalEdgeStyle;rounded=0;orthogonalLoop=1;jettySize=auto;html=1;entryX=0;entryY=0.5;entryDx=0;entryDy=0;endArrow=none;endFill=0;startArrow=none;startFill=0;" parent="1" source="cv3CHYFe_m0vqPARhQnP-86" edge="1">
          <mxGeometry relative="1" as="geometry">
            <Array as="points">
              <mxPoint x="830" y="580" />
              <mxPoint x="830" y="475" />
            </Array>
            <mxPoint x="870" y="475" as="targetPoint" />
          </mxGeometry>
        </mxCell>
        <mxCell id="cv3CHYFe_m0vqPARhQnP-86" value="DelegateTheme" style="swimlane;fontStyle=0;childLayout=stackLayout;horizontal=1;startSize=30;horizontalStack=0;resizeParent=1;resizeParentMax=0;resizeLast=0;collapsible=1;marginBottom=0;whiteSpace=wrap;html=1;" parent="1" vertex="1">
          <mxGeometry x="600" y="550" width="140" height="60" as="geometry" />
        </mxCell>
        <mxCell id="cv3CHYFe_m0vqPARhQnP-87" value="*" style="text;html=1;align=center;verticalAlign=middle;resizable=0;points=[];autosize=1;strokeColor=none;fillColor=none;" parent="1" vertex="1">
          <mxGeometry x="733" y="579" width="30" height="30" as="geometry" />
        </mxCell>
        <mxCell id="cv3CHYFe_m0vqPARhQnP-88" value="1" style="text;html=1;align=center;verticalAlign=middle;resizable=0;points=[];autosize=1;strokeColor=none;fillColor=none;" parent="1" vertex="1">
          <mxGeometry x="840" y="684" width="30" height="30" as="geometry" />
        </mxCell>
        <mxCell id="cv3CHYFe_m0vqPARhQnP-89" value="1" style="text;html=1;align=center;verticalAlign=middle;resizable=0;points=[];autosize=1;strokeColor=none;fillColor=none;" parent="1" vertex="1">
          <mxGeometry x="644" y="456" width="30" height="30" as="geometry" />
        </mxCell>
        <mxCell id="cv3CHYFe_m0vqPARhQnP-90" style="edgeStyle=orthogonalEdgeStyle;rounded=0;orthogonalLoop=1;jettySize=auto;html=1;entryX=0.5;entryY=1;entryDx=0;entryDy=0;endArrow=none;endFill=0;exitX=0;exitY=0.25;exitDx=0;exitDy=0;" parent="1" source="cv3CHYFe_m0vqPARhQnP-86" target="cv3CHYFe_m0vqPARhQnP-2" edge="1">
          <mxGeometry relative="1" as="geometry">
            <mxPoint x="510" y="570" as="sourcePoint" />
            <Array as="points">
              <mxPoint x="510" y="565" />
              <mxPoint x="510" y="430" />
              <mxPoint x="500" y="430" />
              <mxPoint x="500" y="400" />
              <mxPoint x="510" y="400" />
            </Array>
          </mxGeometry>
        </mxCell>
        <mxCell id="cv3CHYFe_m0vqPARhQnP-93" value="*" style="text;html=1;align=center;verticalAlign=middle;resizable=0;points=[];autosize=1;strokeColor=none;fillColor=none;" parent="1" vertex="1">
          <mxGeometry x="570" y="565" width="30" height="30" as="geometry" />
        </mxCell>
        <mxCell id="cv3CHYFe_m0vqPARhQnP-94" value="1" style="text;html=1;align=center;verticalAlign=middle;resizable=0;points=[];autosize=1;strokeColor=none;fillColor=none;" parent="1" vertex="1">
          <mxGeometry x="502.5" y="148" width="30" height="30" as="geometry" />
        </mxCell>
        <mxCell id="cv3CHYFe_m0vqPARhQnP-95" value="1" style="text;html=1;align=center;verticalAlign=middle;resizable=0;points=[];autosize=1;strokeColor=none;fillColor=none;" parent="1" vertex="1">
          <mxGeometry x="511" y="277" width="30" height="30" as="geometry" />
        </mxCell>
        <mxCell id="cv3CHYFe_m0vqPARhQnP-96" value="DelegateThemeCatalog" style="rounded=0;whiteSpace=wrap;html=1;" parent="1" vertex="1">
          <mxGeometry x="449.75" y="217" width="135.5" height="60" as="geometry" />
        </mxCell>
        <mxCell id="cv3CHYFe_m0vqPARhQnP-97" value="1" style="text;html=1;align=center;verticalAlign=middle;resizable=0;points=[];autosize=1;strokeColor=none;fillColor=none;" parent="1" vertex="1">
          <mxGeometry x="508" y="193" width="30" height="30" as="geometry" />
        </mxCell>
      </root>
    </mxGraphModel>
  </diagram>
</mxfile>
